<?xml version="1.0" standalone="yes"?>
<svg xmlns="http://www.w3.org/2000/svg" width="200" height="162">
<path style="fill:#fefefe; stroke:none;" d="M0 0L0 123C3.09889 123 7.01569 122.429 9.81481 124.028C12.9925 125.843 14.8092 129.959 16.5756 133C20.5444 139.833 25.2579 146.569 28 154C31.0081 146.831 29 135.761 29 128L27.0471 127.414C19.9436 121.277 43.8798 122.17 34 128L34 162L52 162C46.3671 157.539 41.7516 153.551 40.6582 146C39.0298 134.754 48.8029 121.461 61 123.344C80.5931 126.369 78.666 153.37 64 161C68.7238 162.982 74.9098 162 80 162L80 158L83 158L83 128L80 128L80 123C83.7409 123 88.2997 122.302 91.9221 123.317C96.2551 124.532 93.7719 127.139 91 128L91 157C95.188 157 99.0056 157.374 102.535 154.785C103.479 154.093 105.266 151.882 106.607 153.06C108.328 154.571 107.041 159.944 107 162L110 162L110 158L114 158L114 128L110 128L110 123L126 123C125.188 125.782 124.547 126.627 122 128L122 158C124.698 158.828 125.298 159.273 126 162L130 162L130 158L134 158L134 128C131.453 126.627 130.812 125.782 130 123C139.392 123 151.158 120.978 158.957 127.394C171.079 137.365 165.131 156.803 151 161C156.469 163.295 164.099 162 170 162C169.439 156.634 172.737 153.248 175.659 149C180.458 142.023 185.553 135.207 190 128C186.287 128 180.84 127.001 177.414 128.603C175.754 129.379 173.73 133.632 171.563 132.079C169.262 130.43 170.819 125.318 171 123C177.333 123 183.667 122.957 190 123.001C192.247 123.016 195.663 122.647 197.289 124.603C199.619 127.409 195.84 131.72 194.333 134C188.998 142.068 183.079 149.769 178 158C182.069 157.486 187.967 158.015 191.675 156.397C195.101 154.902 196.024 151.476 200 151L200 0L0 0z"/>
<path style="fill:#c8aa9d; stroke:none;" d="M42 56C45.4855 52.623 48.7162 47.8541 49.6597 43C50.5636 38.3501 49.8175 33.357 52.1644 29.0154C55.3171 23.183 61.8399 22.2358 67 19.0062C74.9008 14.0612 77.7066 6.24768 88 6C79.2849 2.3512 73.9282 10.8798 68 15.7361C63.3018 19.5848 56.4855 20.6256 52.419 25.213C48.0704 30.1186 49.8472 36.2074 48.4676 42C47.2575 47.0808 43.5768 51.0517 42 56M90 6C98.2207 11.6162 107.696 3.67189 116 6.74614C121.214 8.6763 123.864 14.114 128.09 17.3627C132.786 20.9731 139.502 21.9485 143.581 26.3403C148 31.0974 146.172 37.29 147.532 43C149.05 49.3699 155.186 54.142 154.849 61C154.633 65.3835 151.509 69.0122 150 73C151.512 71.7037 152.617 70.669 153.672 68.9414C160.003 58.5753 153.244 53.4981 149.479 44C147.332 38.5837 149.429 31.9549 146.258 27.0185C142.925 21.8315 136.847 20.9936 132.004 17.8673C126.816 14.518 123.798 8.59546 118 6.08951C112.378 3.65962 106.663 5.95636 101 6.69598C97.3071 7.17827 93.6721 6.28979 90 6M4 18L5 19L4 18M24 18L25 19L24 18M44 18L45 19L44 18M84 18L85 19L84 18M104 18L105 19L104 18M124 18L125 19L124 18M144 18L145 19L144 18M164 18L165 19L164 18M184 18L185 19L184 18M85 36L86 37L85 36z"/>
<path style="fill:#5e5e5e; stroke:none;" d="M86 36L87 37L86 36z"/>
<path style="fill:#040404; stroke:none;" d="M84 63L84 65L77 68C82.861 69.6019 88.8445 62.8795 87.304 57.0147C86.2554 53.0223 82.7363 51.5521 80.2531 48.6759C78.9026 47.1117 78.1008 45.2429 79.5818 43.4483C83.3481 38.8845 89.3229 44.2267 90.8519 48.0154C94.3638 56.7183 93 68.7752 93 78C90.6218 76.5211 87.8078 73.7452 85 73.2554C80.4045 72.4537 76.2479 78.8092 74 82C78.7899 81.2752 81.4964 83.9636 85 87C91.8809 82.153 101.459 73.5323 103.581 65C105.318 58.0152 103.405 50.1364 104 43C96.5345 40.7737 93.0794 33.7807 84 37.483C76.8981 40.379 70.5717 50.074 75.179 57.6713C77.0496 60.7558 80.7457 62.0417 84 63z"/>
<path style="fill:#5e5e5e; stroke:none;" d="M92 36L93 37L92 36z"/>
<path style="fill:#c8aa9d; stroke:none;" d="M93.6667 36.3333C93.2222 36.7778 94.2778 36.7222 94.3333 36.6667C94.7778 36.2222 93.7222 36.2778 93.6667 36.3333M82 37L83 38L82 37z"/>
<path style="fill:#5e5e5e; stroke:none;" d="M83 37L84 38L83 37M95 37L96 38L95 37z"/>
<path style="fill:#c8aa9d; stroke:none;" d="M96 37L97 38L96 37M108 37L109 38L108 37z"/>
<path style="fill:#5e5e5e; stroke:none;" d="M109 37L110 38L109 37z"/>
<path style="fill:#040404; stroke:none;" d="M105 40C112.332 43.9983 110.068 53.1815 119 55C115.074 56.7492 109.793 57.8005 107.858 62.1049C105.208 67.9998 105.497 84.6882 114.004 85.8387C118.51 86.4482 123.469 81.1088 126 78C120.114 79.2482 118.186 75.5064 118.015 70C117.804 63.1775 118.611 58.3966 125 55C120.565 48.2774 122.495 34.4136 110.025 37.642C108.187 38.1178 106.635 39.0844 105 40z"/>
<path style="fill:#5e5e5e; stroke:none;" d="M115 37L116 38L115 37z"/>
<path style="fill:#c8aa9d; stroke:none;" d="M116.667 37.3333C116.222 37.7778 117.278 37.7222 117.333 37.6667C117.778 37.2222 116.722 37.2778 116.667 37.3333M4 38L5 39L4 38M24 38L25 39L24 38M44 38L45 39L44 38M64 38L65 39L64 38z"/>
<path style="fill:#5e5e5e; stroke:none;" d="M81 38L82 39L81 38M97 38L98 39L97 38z"/>
<path style="fill:#c8aa9d; stroke:none;" d="M98 38L99 39L98 38M104 38L105 39L104 38M106 38L107 39L106 38z"/>
<path style="fill:#5e5e5e; stroke:none;" d="M107 38L108 39L107 38M118 38L119 39L118 38z"/>
<path style="fill:#c8aa9d; stroke:none;" d="M124 38L125 39L124 38M144 38L145 39L144 38M164 38L165 39L164 38M184 38L185 39L184 38M79 39L80 40L79 39M99 39L100 40L99 39M105 39L106 40L105 39M78 40L79 41L78 40M100 40L101 41L100 40M104 40L105 41L104 40z"/>
<path style="fill:#5e5e5e; stroke:none;" d="M120 40L121 41L120 40z"/>
<path style="fill:#c8aa9d; stroke:none;" d="M77 41L78 42L77 41z"/>
<path style="fill:#5e5e5e; stroke:none;" d="M81 41C82.506 41.683 83.3148 41.8259 85 42C83.4939 41.317 82.6852 41.1741 81 41z"/>
<path style="fill:#c8aa9d; stroke:none;" d="M101 41L102 42L101 41z"/>
<path style="fill:#5e5e5e; stroke:none;" d="M103 43C104.58 42.3164 104.777 42.1952 106 41C104.42 41.6836 104.223 41.8048 103 43M109 41L110 42L109 41z"/>
<path style="fill:#c8aa9d; stroke:none;" d="M121 41L122 42L121 41M76 42L77 43L76 42z"/>
<path style="fill:#5e5e5e; stroke:none;" d="M79 42L80 43L79 42M86 42L87 43L86 42M101 42L102 43L101 42M121 42L122 43L121 42M78 43L79 44L78 43z"/>
<path style="fill:#c8aa9d; stroke:none;" d="M87 43L88 44L87 43z"/>
<path style="fill:#5e5e5e; stroke:none;" d="M88 43L89 44L88 43z"/>
<path style="fill:#c8aa9d; stroke:none;" d="M102 43L103 44L102 43M104 43L105 44L104 43z"/>
<path style="fill:#5e5e5e; stroke:none;" d="M110 43L110 46C110.696 44.4463 110.696 44.5537 110 43M75 44L76 45L75 44M89 44L90 45L89 44z"/>
<path style="fill:#c8aa9d; stroke:none;" d="M122 44L122 50C122.951 47.7147 122.951 46.2853 122 44M74 45L75 46L74 45z"/>
<path style="fill:#5e5e5e; stroke:none;" d="M77.3333 45.6667C77.2778 45.7222 77.2222 46.7778 77.6667 46.3333C77.7222 46.2778 77.7778 45.2222 77.3333 45.6667z"/>
<path style="fill:#c8aa9d; stroke:none;" d="M89 45L90 46L89 45z"/>
<path style="fill:#5e5e5e; stroke:none;" d="M74 46L75 47L74 46M90 46L91 47L90 46M103 46L103 49C103.696 47.4463 103.696 47.5537 103 46z"/>
<path style="fill:#c8aa9d; stroke:none;" d="M110.333 46.6667C110.278 46.7222 110.222 47.7778 110.667 47.3333C110.722 47.2778 110.778 46.2222 110.333 46.6667M78 47L79 48L78 47M73.3333 48.6667C73.2778 48.7222 73.2222 49.7778 73.6667 49.3333C73.7222 49.2778 73.7778 48.2222 73.3333 48.6667M79 48L80 49L79 48z"/>
<path style="fill:#5e5e5e; stroke:none;" d="M80 49L81 50L80 49M91.3333 49.6667C91.2778 49.7222 91.2222 50.7778 91.6667 50.3333C91.7222 50.2778 91.7778 49.2222 91.3333 49.6667M73 50L73 56C73.9511 53.7147 73.9511 52.2853 73 50z"/>
<path style="fill:#c8aa9d; stroke:none;" d="M82 50L83 51L82 50z"/>
<path style="fill:#5e5e5e; stroke:none;" d="M111 50L112 51L111 50M122.333 50.6667C122.278 50.7222 122.222 51.7778 122.667 51.3333C122.722 51.2778 122.778 50.2222 122.333 50.6667M83 51L84 52L83 51z"/>
<path style="fill:#c8aa9d; stroke:none;" d="M91 51L91 55C91.7102 53.2405 91.7102 52.7595 91 51M85 52L86 53L85 52M112 52L113 53L112 52M86 53L87 54L86 53z"/>
<path style="fill:#5e5e5e; stroke:none;" d="M113 53L114 54L113 53M123 53L124 54L123 53M86 54L87 55L86 54z"/>
<path style="fill:#c8aa9d; stroke:none;" d="M104 54L104 58C104.71 56.2405 104.71 55.7595 104 54M114 54L115 55L114 54z"/>
<path style="fill:#5e5e5e; stroke:none;" d="M115 54L116 55L115 54M125.667 54.3333C125.222 54.7778 126.278 54.7222 126.333 54.6667C126.778 54.2222 125.722 54.2778 125.667 54.3333z"/>
<path style="fill:#c8aa9d; stroke:none;" d="M87 55L88 56L87 55M117 55L118 56L117 55z"/>
<path style="fill:#5e5e5e; stroke:none;" d="M118 55L119 56L118 55z"/>
<path style="fill:#c8aa9d; stroke:none;" d="M123 55C124.506 55.683 125.315 55.8259 127 56C125.494 55.317 124.685 55.1741 123 55M73 56L74 57L73 56z"/>
<path style="fill:#5e5e5e; stroke:none;" d="M87 56L88 57L87 56z"/>
<path style="fill:#c8aa9d; stroke:none;" d="M114 56L115 57L114 56z"/>
<path style="fill:#5e5e5e; stroke:none;" d="M115 56L116 57L115 56M121 56L122 57L121 56z"/>
<path style="fill:#c8aa9d; stroke:none;" d="M41 57C41.024 65.3576 45.2113 69.556 48.0062 77C50.0291 82.388 48.1597 88.7292 51.1644 93.8951C54.1844 99.0874 61.2913 99.9019 65.9961 102.969C71.1949 106.358 74.0687 112.991 80 115.258C85.5776 117.39 91.4106 114.437 97 114.094C103.859 113.673 111.418 118.112 118 114.821C120.637 113.503 122.917 111.205 124.851 109.021C126.283 107.404 127.102 105.925 128 104C123.598 107.239 120.488 112.746 115 114.333C109.102 116.038 102.976 111.977 97 112.274C92.1214 112.516 86.9047 115.875 82 114.218C75.9282 112.167 72.1315 105.235 67 101.649C62.3265 98.3833 56.1272 98.008 52.7384 92.956C49.5078 88.1398 50.8024 82.3094 49.6065 77C48.5932 72.5013 45.2818 69.1139 43.4167 65C42.2423 62.4097 42.112 59.5722 41 57z"/>
<path style="fill:#5e5e5e; stroke:none;" d="M74 57L75 58L74 57M112 57L113 58L112 57z"/>
<path style="fill:#c8aa9d; stroke:none;" d="M120 57L121 58L120 57M4 58L5 59L4 58M24 58L25 59L24 58M44 58L45 59L44 58M64 58L65 59L64 58z"/>
<path style="fill:#5e5e5e; stroke:none;" d="M104 58L105 59L104 58M110 58L111 59L110 58M119 58L120 59L119 58z"/>
<path style="fill:#c8aa9d; stroke:none;" d="M124 58L125 59L124 58M144 58L145 59L144 58M164 58L165 59L164 58M184 58L185 59L184 58z"/>
<path style="fill:#5e5e5e; stroke:none;" d="M76 59L77 60L76 59M92.3333 59.6667C92.2778 59.7222 92.2223 60.7778 92.6667 60.3333C92.7222 60.2778 92.7778 59.2222 92.3333 59.6667z"/>
<path style="fill:#c8aa9d; stroke:none;" d="M104 59L104 64C104.83 61.9695 104.83 61.0305 104 59M77 60L78 61L77 60z"/>
<path style="fill:#5e5e5e; stroke:none;" d="M108 60L109 61L108 60M118.333 60.6667C118.278 60.7222 118.222 61.7778 118.667 61.3333C118.722 61.2778 118.778 60.2222 118.333 60.6667M79 61L80 62L79 61M87 61L88 62L87 61z"/>
<path style="fill:#c8aa9d; stroke:none;" d="M92 61L92 77C93.8123 72.6811 93.8123 65.3189 92 61z"/>
<path style="fill:#5e5e5e; stroke:none;" d="M107 61L108 62L107 61M81 62L82 63L81 62z"/>
<path style="fill:#c8aa9d; stroke:none;" d="M87 62L88 63L87 62M118 62L118 74C119.512 70.3957 119.512 65.6043 118 62z"/>
<path style="fill:#5e5e5e; stroke:none;" d="M83.3333 63.6667C83.2778 63.7222 83.2222 64.7778 83.6667 64.3333C83.7222 64.2778 83.7778 63.2222 83.3333 63.6667M86 63L87 64L86 63z"/>
<path style="fill:#c8aa9d; stroke:none;" d="M106.333 63.6667C106.278 63.7222 106.222 64.7778 106.667 64.3333C106.722 64.2778 106.778 63.2222 106.333 63.6667M86 64L87 65L86 64z"/>
<path style="fill:#5e5e5e; stroke:none;" d="M82 65L83 66L82 65z"/>
<path style="fill:#c8aa9d; stroke:none;" d="M85 65L86 66L85 65z"/>
<path style="fill:#5e5e5e; stroke:none;" d="M106 65L106 72C107.059 69.4657 107.059 67.5343 106 65z"/>
<path style="fill:#c8aa9d; stroke:none;" d="M79 66L80 67L79 66z"/>
<path style="fill:#5e5e5e; stroke:none;" d="M80 66L81 67L80 66z"/>
<path style="fill:#c8aa9d; stroke:none;" d="M84 66L85 67L84 66z"/>
<path style="fill:#5e5e5e; stroke:none;" d="M103 66L104 67L103 66z"/>
<path style="fill:#c8aa9d; stroke:none;" d="M77 67L78 68L77 67z"/>
<path style="fill:#5e5e5e; stroke:none;" d="M82 67L83 68L82 67z"/>
<path style="fill:#c8aa9d; stroke:none;" d="M83 67L84 68L83 67M103 67L104 68L103 67M76 68L77 69L76 68z"/>
<path style="fill:#5e5e5e; stroke:none;" d="M80 68L81 69L80 68z"/>
<path style="fill:#c8aa9d; stroke:none;" d="M81 68L82 69L81 68z"/>
<path style="fill:#5e5e5e; stroke:none;" d="M102 68L103 69L102 68M101 69L102 70L101 69z"/>
<path style="fill:#c8aa9d; stroke:none;" d="M101 70L102 71L101 70z"/>
<path style="fill:#5e5e5e; stroke:none;" d="M83 71L84 72L83 71z"/>
<path style="fill:#c8aa9d; stroke:none;" d="M84 71L85 72L84 71M100 71L101 72L100 71z"/>
<path style="fill:#5e5e5e; stroke:none;" d="M82 72L83 73L82 72z"/>
<path style="fill:#c8aa9d; stroke:none;" d="M85 72L86 73L85 72z"/>
<path style="fill:#5e5e5e; stroke:none;" d="M99 72L100 73L99 72z"/>
<path style="fill:#c8aa9d; stroke:none;" d="M106 72L106 78C106.951 75.7147 106.951 74.2853 106 72z"/>
<path style="fill:#5e5e5e; stroke:none;" d="M81 73L82 74L81 73M86 73L87 74L86 73M98 73L99 74L98 73M80 74L81 75L80 74M87 74L88 75L87 74M118.333 74.6667C118.278 74.7222 118.222 75.7778 118.667 75.3333C118.722 75.2778 118.778 74.2222 118.333 74.6667M79 75L80 76L79 75z"/>
<path style="fill:#c8aa9d; stroke:none;" d="M89 75L90 76L89 75M97 75L98 76L97 75z"/>
<path style="fill:#5e5e5e; stroke:none;" d="M78 76L79 77L78 76z"/>
<path style="fill:#c8aa9d; stroke:none;" d="M90 76L91 77L90 76M96 76L97 77L96 76z"/>
<path style="fill:#5e5e5e; stroke:none;" d="M77 77L78 78L77 77M91.6667 77.3333C91.2222 77.7778 92.2778 77.7222 92.3333 77.6667C92.7778 77.2222 91.7222 77.2778 91.6667 77.3333z"/>
<path style="fill:#c8aa9d; stroke:none;" d="M95 77L96 78L95 77M119 77L120 78L119 77M125.667 77.3333C125.222 77.7778 126.278 77.7222 126.333 77.6667C126.778 77.2222 125.722 77.2778 125.667 77.3333M4 78L5 79L4 78M24 78L25 79L24 78M44 78L45 79L44 78M64 78L65 79L64 78z"/>
<path style="fill:#5e5e5e; stroke:none;" d="M76 78L77 79L76 78M94 78L95 79L94 78z"/>
<path style="fill:#c8aa9d; stroke:none;" d="M104 78L105 79L104 78M120 78L121 79L120 78z"/>
<path style="fill:#5e5e5e; stroke:none;" d="M124 78L125 79L124 78M126 78L127 79L126 78z"/>
<path style="fill:#c8aa9d; stroke:none;" d="M144 78L145 79L144 78M164 78L165 79L164 78M184 78L185 79L184 78z"/>
<path style="fill:#5e5e5e; stroke:none;" d="M75 79L76 80L75 79M93 79L94 80L93 79M121.667 79.3333C121.222 79.7778 122.278 79.7222 122.333 79.6667C122.778 79.2222 121.722 79.2778 121.667 79.3333M125 79L126 80L125 79z"/>
<path style="fill:#c8aa9d; stroke:none;" d="M147 79C147 82.2645 147.339 85.8275 146.427 89C144.09 97.1326 135.509 98.5696 129 102C141.3 104.155 151.697 90.1939 147 79z"/>
<path style="fill:#5e5e5e; stroke:none;" d="M74 80L75 81L74 80M76 80L77 81L76 80z"/>
<path style="fill:#c8aa9d; stroke:none;" d="M77 80L78 81L77 80z"/>
<path style="fill:#5e5e5e; stroke:none;" d="M92 80L93 81L92 80z"/>
<path style="fill:#c8aa9d; stroke:none;" d="M107 80L108 81L107 80M124 80L125 81L124 80z"/>
<path style="fill:#5e5e5e; stroke:none;" d="M73 81L73 83L75 83C74.4549 81.3648 74.6352 81.5451 73 81M75 81L76 82L75 81z"/>
<path style="fill:#c8aa9d; stroke:none;" d="M78 81L79 82L78 81z"/>
<path style="fill:#5e5e5e; stroke:none;" d="M91 81L92 82L91 81M122 81L123 82L122 81z"/>
<path style="fill:#c8aa9d; stroke:none;" d="M79 82L80 83L79 82z"/>
<path style="fill:#5e5e5e; stroke:none;" d="M90 82L91 83L90 82z"/>
<path style="fill:#c8aa9d; stroke:none;" d="M108 82L109 83L108 82M121 82L122 83L121 82z"/>
<path style="fill:#5e5e5e; stroke:none;" d="M89 83L90 84L89 83M109 83L110 84L109 83z"/>
<path style="fill:#c8aa9d; stroke:none;" d="M120 83L121 84L120 83z"/>
<path style="fill:#5e5e5e; stroke:none;" d="M82 84L83 85L82 84M88 84L89 85L88 84M110 84L111 85L110 84M118 84L119 85L118 84M83 85L84 86L83 85M87 85L88 86L87 85z"/>
<path style="fill:#c8aa9d; stroke:none;" d="M111 85L112 86L111 85M117 85L118 86L117 85z"/>
<path style="fill:#5e5e5e; stroke:none;" d="M84 86L85 87L84 86M86 86L87 87L86 86z"/>
<path style="fill:#c8aa9d; stroke:none;" d="M112 86L113 87L112 86z"/>
<path style="fill:#5e5e5e; stroke:none;" d="M113 86L114 87L113 86M115 86L116 87L115 86z"/>
<path style="fill:#c8aa9d; stroke:none;" d="M116 86L117 87L116 86M85 87L86 88L85 87M114 87L115 88L114 87M4 98L5 99L4 98M24 98L25 99L24 98M44 98L45 99L44 98M64 98L65 99L64 98M84 98L85 99L84 98M104 98L105 99L104 98M124 98L125 99L124 98M144 98L145 99L144 98M164 98L165 99L164 98M184 98L185 99L184 98M4 118L5 119L4 118M24 118L25 119L24 118M44 118L45 119L44 118M64 118L65 119L64 118M84 118L85 119L84 118M104 118L105 119L104 118M124 118L125 119L124 118M144 118L145 119L144 118M164 118L165 119L164 118M184 118L185 119L184 118M0 123C3.69564 124.551 8.04856 124.059 12 125C8.51814 122.362 4.23922 123 0 123M24 127C24.6848 125.752 24.7488 125.452 25 124C29.386 124 34.3854 122.967 37 127C38.3601 120.944 25.6988 121.882 24 127M55.6667 123.333C55.2222 123.778 56.2778 123.722 56.3333 123.667C56.7778 123.222 55.7222 123.278 55.6667 123.333z"/>
<path style="fill:#5e5e5e; stroke:none;" d="M57 123C58.5061 123.683 59.3148 123.826 61 124C59.494 123.317 58.6852 123.174 57 123z"/>
<path style="fill:#c8aa9d; stroke:none;" d="M61.6667 123.333C61.2222 123.778 62.2778 123.722 62.3333 123.667C62.7778 123.222 61.7222 123.278 61.6667 123.333M80 123C84.941 125.073 91.7515 121.989 95 127C96.3432 121.02 83.7161 123 80 123M110 123C114.724 124.982 120.91 124 126 124C121.276 122.018 115.09 123 110 123M130 123C133.697 124.552 138.017 124 142 124C138.303 122.448 133.983 123 130 123z"/>
<path style="fill:#5e5e5e; stroke:none;" d="M142 123C144.613 124.098 147.164 123.993 150 124C147.387 122.902 144.835 123.007 142 123z"/>
<path style="fill:#c8aa9d; stroke:none;" d="M150.667 123.333C150.222 123.778 151.278 123.722 151.333 123.667C151.778 123.222 150.722 123.278 150.667 123.333M171 123C178.409 126.109 189.975 124 198 124C190.591 120.891 179.025 123 171 123z"/>
<path style="fill:#5e5e5e; stroke:none;" d="M0 124C0.838703 126.626 1.37353 127.161 4 128L0 124z"/>
<path style="fill:#040404; stroke:none;" d="M1 124C1.48245 126.364 1.636 126.518 4 127L4 158C1.70262 158.674 1.22593 158.965 0 161L13 161C11.535 158.878 10.5431 158.526 8 158L8 132C16.4653 140.717 18.7129 160.831 33 161C33 151.729 31.0724 140.051 33.3133 131.054C33.976 128.393 36.1302 126.571 37 124L25 124C25.844 126.607 28.0079 128.451 28.6867 131.104C30.5256 138.291 29 147.588 29 155C24.9346 148.041 21.0745 140.955 16.9892 134C15.2933 131.113 13.5581 126.864 10.6211 125.028C7.97371 123.373 3.98201 124 1 124z"/>
<path style="fill:#c8aa9d; stroke:none;" d="M52 124L53 125L52 124z"/>
<path style="fill:#040404; stroke:none;" d="M53 124.653C32.8455 130.974 39.8693 167.572 62 161.211C83.5581 155.014 76.5073 117.28 53 124.653z"/>
<path style="fill:#5e5e5e; stroke:none;" d="M64 124L65 125L64 124z"/>
<path style="fill:#c8aa9d; stroke:none;" d="M65 124L66 125L65 124z"/>
<path style="fill:#5e5e5e; stroke:none;" d="M80 124C80.8387 126.626 81.3735 127.161 84 128L80 124z"/>
<path style="fill:#040404; stroke:none;" d="M81 124C81.4825 126.364 81.636 126.518 84 127L84 158C81.7026 158.674 81.2259 158.965 80 161L106 161L108 153C106.521 152.014 106.797 152 105 152C100.6 157.587 96.7865 157.999 90 158L90 137C90.0099 132.191 89.9091 128.545 95 127L95 124L81 124z"/>
<path style="fill:#5e5e5e; stroke:none;" d="M110 124L110 127C110.696 125.446 110.696 125.554 110 124z"/>
<path style="fill:#040404; stroke:none;" d="M111 124L111 127L115 127L115 146C115 149.033 115.601 152.915 114.401 155.776C113.521 157.875 111.285 159.176 110 161L126 161C124.554 158.717 123.689 158.418 121 158L121 127L126 127L126 124L111 124z"/>
<path style="fill:#5e5e5e; stroke:none;" d="M130 124L130 127C130.696 125.446 130.696 125.554 130 124z"/>
<path style="fill:#040404; stroke:none;" d="M131 124C131.482 126.364 131.636 126.518 134 127C134 138.246 135.926 150.74 131 161C138.627 161 149.143 162.862 155.996 158.91C166.87 152.642 168.334 132.648 156.995 126.09C149.942 122.01 138.861 124 131 124z"/>
<path style="fill:#5e5e5e; stroke:none;" d="M153 124L154 125L153 124z"/>
<path style="fill:#c8aa9d; stroke:none;" d="M154 124L155 125L154 124z"/>
<path style="fill:#040404; stroke:none;" d="M171 124L171 133C174.18 131.918 175.233 128.873 178.213 127.603C182.067 125.96 187.872 127 192 127C186.612 132.868 182.464 139.532 177.859 146C174.509 150.704 170.778 155.153 170 161L198 161L199 151C195.933 152.55 193.983 155.414 190.961 156.973C187.051 158.991 181.278 158 177 158C181.878 152.362 185.804 146.125 190.025 140C193.366 135.153 197.195 130.666 199 125C190.434 122.468 179.909 124 171 124z"/>
<path style="fill:#5e5e5e; stroke:none;" d="M198 124L199 125L198 124M50 125L51 126L50 125M66 125L67 126L66 125z"/>
<path style="fill:#c8aa9d; stroke:none;" d="M67 125L68 126L67 125z"/>
<path style="fill:#5e5e5e; stroke:none;" d="M156 125L157 126L156 125M12 126L13 127L12 126z"/>
<path style="fill:#c8aa9d; stroke:none;" d="M48 126L49 127L48 126z"/>
<path style="fill:#5e5e5e; stroke:none;" d="M56 126C57.506 126.683 58.3148 126.826 60 127C58.4939 126.317 57.6852 126.174 56 126M68 126L69 127L68 126M142 126C144.052 126.874 145.747 126.953 148 127C145.948 126.126 144.253 126.047 142 126M158 126L159 127L158 126z"/>
<path style="fill:#c8aa9d; stroke:none;" d="M0 127L1 128L0 127M13 127L14 128L13 127z"/>
<path style="fill:#5e5e5e; stroke:none;" d="M25.6667 127.333C25.2222 127.778 26.2778 127.722 26.3333 127.667C26.7778 127.222 25.7222 127.278 25.6667 127.333M34 127C35.2484 127.685 35.5484 127.749 37 128C35.7516 127.315 35.4516 127.251 34 127M47 127L48 128L47 127M54 127L55 128L54 127z"/>
<path style="fill:#fefefe; stroke:none;" d="M55.0941 127.758C47.0851 130.829 47.7951 145.604 50.483 151.985C52.2208 156.11 56.2197 159.699 60.956 157.948C68.7596 155.062 68.7435 139.215 65.5432 133.015C63.6231 129.296 59.4363 126.092 55.0941 127.758z"/>
<path style="fill:#c8aa9d; stroke:none;" d="M60 127L61 128L60 127z"/>
<path style="fill:#5e5e5e; stroke:none;" d="M61 127L62 128L61 127M69 127L70 128L69 127z"/>
<path style="fill:#c8aa9d; stroke:none;" d="M80 127L81 128L80 127z"/>
<path style="fill:#5e5e5e; stroke:none;" d="M91 127C92.5061 127.683 93.3148 127.826 95 128C93.494 127.317 92.6852 127.174 91 127z"/>
<path style="fill:#c8aa9d; stroke:none;" d="M110 127C111.506 127.683 112.315 127.826 114 128L114 158C116.496 152.051 115.003 143.418 115 137C114.999 134.615 115.441 131.545 114.401 129.318C113.498 127.382 111.854 127.309 110 127z"/>
<path style="fill:#5e5e5e; stroke:none;" d="M114 127L115 128L114 127M121 127L121 158C123.497 152.049 122 143.42 122 137C122 133.581 122.328 130.166 121 127z"/>
<path style="fill:#c8aa9d; stroke:none;" d="M122 127C123.248 127.685 123.548 127.749 125 128C123.752 127.315 123.452 127.251 122 127M131 127C132.248 127.685 132.548 127.749 134 128C132.752 127.315 132.452 127.251 131 127M141 127L142 128L141 127z"/>
<path style="fill:#fefefe; stroke:none;" d="M142.603 128.029C140.246 129.876 141.001 134.395 141 137C140.997 143.78 137.636 158.95 148 157.767C149.378 157.61 150.758 157.039 151.895 156.258C158.085 152.009 158.87 139.313 155.543 133.043C153.569 129.323 146.767 124.765 142.603 128.029z"/>
<path style="fill:#c8aa9d; stroke:none;" d="M149 127L150 128L149 127z"/>
<path style="fill:#5e5e5e; stroke:none;" d="M150 127L151 128L150 127M159 127L160 128L159 127z"/>
<path style="fill:#c8aa9d; stroke:none;" d="M170 127L170 131C170.71 129.241 170.71 128.759 170 127z"/>
<path style="fill:#5e5e5e; stroke:none;" d="M176 127C178.613 128.098 181.165 127.993 184 128C181.387 126.902 178.835 127.007 176 127z"/>
<path style="fill:#c8aa9d; stroke:none;" d="M184 127C186.332 127.985 188.457 127.981 191 128C188.668 127.015 186.543 127.019 184 127z"/>
<path style="fill:#5e5e5e; stroke:none;" d="M191 127L192 128L191 127M198 127L199 128L198 127z"/>
<path style="fill:#fefefe; stroke:none;" d="M0 128L0 158C4.38139 156.546 3.99141 153.175 4 149L4 128L0 128z"/>
<path style="fill:#5e5e5e; stroke:none;" d="M13 128L14 129L13 128M33 128L33 161C34.3283 157.834 33.9998 154.419 34 151C34.0004 144.049 35.7006 134.436 33 128M46 128L47 129L46 128M52 128L53 129L52 128z"/>
<path style="fill:#c8aa9d; stroke:none;" d="M62 128L63 129L62 128z"/>
<path style="fill:#5e5e5e; stroke:none;" d="M70 128L71 129L70 128z"/>
<path style="fill:#c8aa9d; stroke:none;" d="M83 128L83 158C84.3283 154.834 83.9998 151.419 84 148C84.0004 141.846 85.3948 133.707 83 128z"/>
<path style="fill:#5e5e5e; stroke:none;" d="M90 128L90 158C92.3948 152.293 91.0004 144.154 91 138C90.9998 134.581 91.3283 131.166 90 128z"/>
<path style="fill:#c8aa9d; stroke:none;" d="M151 128L152 129L151 128z"/>
<path style="fill:#5e5e5e; stroke:none;" d="M152 128L153 129L152 128M160 128L161 129L160 128M190 128L191 129L190 128z"/>
<path style="fill:#c8aa9d; stroke:none;" d="M14 129L15 130L14 129z"/>
<path style="fill:#5e5e5e; stroke:none;" d="M45 129L46 130L45 129M51 129L52 130L51 129z"/>
<path style="fill:#c8aa9d; stroke:none;" d="M63 129L64 130L63 129z"/>
<path style="fill:#5e5e5e; stroke:none;" d="M71 129L72 130L71 129M153 129L154 130L153 129M161 129L162 130L161 129M175 129L176 130L175 129z"/>
<path style="fill:#c8aa9d; stroke:none;" d="M189 129L190 130L189 129M197 129L198 130L197 129M44 130L45 131L44 130M51 130L52 131L51 130M64 130L65 131L64 130M72 130L73 131L72 130z"/>
<path style="fill:#5e5e5e; stroke:none;" d="M154 130L155 131L154 130z"/>
<path style="fill:#c8aa9d; stroke:none;" d="M162 130L163 131L162 130M188 130L189 131L188 130z"/>
<path style="fill:#5e5e5e; stroke:none;" d="M196 130L197 131L196 130M15 131L16 132L15 131M50 131L51 132L50 131M65 131L66 132L65 131M155 131L156 132L155 131M170.333 131.667C170.278 131.722 170.222 132.778 170.667 132.333C170.722 132.278 170.778 131.222 170.333 131.667M174 131L175 132L174 131z"/>
<path style="fill:#c8aa9d; stroke:none;" d="M187 131L188 132L187 131z"/>
<path style="fill:#5e5e5e; stroke:none;" d="M8 132L8 158C11.2399 150.279 8.03274 140.263 10 132L8 132z"/>
<path style="fill:#c8aa9d; stroke:none;" d="M16 132L17 133L16 132z"/>
<path style="fill:#5e5e5e; stroke:none;" d="M43 132L44 133L43 132z"/>
<path style="fill:#c8aa9d; stroke:none;" d="M65 132L66 133L65 132M73 132L74 133L73 132M155 132L156 133L155 132M163 132L164 133L163 132M174 132L175 133L174 132z"/>
<path style="fill:#5e5e5e; stroke:none;" d="M187 132L188 133L187 132z"/>
<path style="fill:#c8aa9d; stroke:none;" d="M195 132L196 133L195 132M9 133L10 134L9 133z"/>
<path style="fill:#5e5e5e; stroke:none;" d="M16 133L17 134L16 133z"/>
<path style="fill:#c8aa9d; stroke:none;" d="M42 133L43 134L42 133z"/>
<path style="fill:#5e5e5e; stroke:none;" d="M49 133L50 134L49 133M66.3333 133.667C66.2778 133.722 66.2222 134.778 66.6667 134.333C66.7222 134.278 66.7778 133.222 66.3333 133.667M156 133L157 134L156 133M163 133L164 134L163 133z"/>
<path style="fill:#c8aa9d; stroke:none;" d="M171 133C172.248 133.685 172.548 133.749 174 134C172.752 133.315 172.452 133.251 171 133z"/>
<path style="fill:#5e5e5e; stroke:none;" d="M186 133L187 134L186 133M194 133L195 134L194 133z"/>
<path style="fill:#fefefe; stroke:none;" d="M9 134L9 158L14 158L14 162L26 162C21.0829 152.761 15.6638 142.035 9 134z"/>
<path style="fill:#5e5e5e; stroke:none;" d="M10 134L11 135L10 134z"/>
<path style="fill:#c8aa9d; stroke:none;" d="M17 134L18 135L17 134z"/>
<path style="fill:#5e5e5e; stroke:none;" d="M42 134L43 135L42 134z"/>
<path style="fill:#c8aa9d; stroke:none;" d="M49 134L50 135L49 134M74 134L75 135L74 134M156 134L157 135L156 134M164.333 134.667C164.278 134.722 164.222 135.778 164.667 135.333C164.722 135.278 164.778 134.222 164.333 134.667M185 134L186 135L185 134M10 135L11 136L10 135z"/>
<path style="fill:#5e5e5e; stroke:none;" d="M74 135L75 136L74 135z"/>
<path style="fill:#c8aa9d; stroke:none;" d="M193 135L194 136L193 135z"/>
<path style="fill:#5e5e5e; stroke:none;" d="M18 136L19 137L18 136z"/>
<path style="fill:#c8aa9d; stroke:none;" d="M41 136L42 137L41 136z"/>
<path style="fill:#5e5e5e; stroke:none;" d="M48 136L48 140C48.7102 138.241 48.7102 137.759 48 136M67.3333 136.667C67.2778 136.722 67.2222 137.778 67.6667 137.333C67.7222 137.278 67.7778 136.222 67.3333 136.667M157 136L157 139C157.696 137.446 157.696 137.554 157 136M164.333 136.667C164.278 136.722 164.222 137.778 164.667 137.333C164.722 137.278 164.778 136.222 164.333 136.667M184 136L185 137L184 136M192 136L193 137L192 136M11 137L12 138L11 137M41 137L42 138L41 137z"/>
<path style="fill:#c8aa9d; stroke:none;" d="M183 137L184 138L183 137z"/>
<path style="fill:#5e5e5e; stroke:none;" d="M191 137L192 138L191 137M19 138L20 139L19 138z"/>
<path style="fill:#c8aa9d; stroke:none;" d="M24 138L25 139L24 138M64 138L65 139L64 138M67 138L67 146C68.1614 143.23 68.1614 140.77 67 138M75 138L75 145C76.0595 142.466 76.0595 140.534 75 138M104 138L105 139L104 138M124 138L125 139L124 138M144 138L145 139L144 138M165 138L165 144C165.951 141.715 165.951 140.285 165 138M191 138L192 139L191 138M12 139L13 140L12 139M20 139L21 140L20 139M157 139L157 148C158.256 145.006 158.256 141.994 157 139z"/>
<path style="fill:#5e5e5e; stroke:none;" d="M182 139L183 140L182 139M190 139L191 140L190 139M13 140L14 141L13 140M20 140L21 141L20 140z"/>
<path style="fill:#c8aa9d; stroke:none;" d="M48 140L48 145C48.8299 142.97 48.8299 142.03 48 140M181 140L182 141L181 140z"/>
<path style="fill:#5e5e5e; stroke:none;" d="M189 140L190 141L189 140z"/>
<path style="fill:#c8aa9d; stroke:none;" d="M13 141L14 142L13 141M21 141L22 142L21 141M40 141L40 146C40.8299 143.97 40.8299 143.03 40 141M189 141L190 142L189 141z"/>
<path style="fill:#5e5e5e; stroke:none;" d="M14 142L15 143L14 142M180 142L181 143L180 142z"/>
<path style="fill:#c8aa9d; stroke:none;" d="M188 142L189 143L188 142z"/>
<path style="fill:#5e5e5e; stroke:none;" d="M22 143L23 144L22 143M179 143L180 144L179 143M187 143L188 144L187 143z"/>
<path style="fill:#c8aa9d; stroke:none;" d="M15 144L16 145L15 144M23 144L24 145L23 144z"/>
<path style="fill:#5e5e5e; stroke:none;" d="M164 144L164 147C164.696 145.446 164.696 145.554 164 144z"/>
<path style="fill:#c8aa9d; stroke:none;" d="M178 144L179 145L178 144z"/>
<path style="fill:#5e5e5e; stroke:none;" d="M16 145L17 146L16 145M23 145L24 146L23 145M48.3333 145.667C48.2778 145.722 48.2222 146.778 48.6667 146.333C48.7222 146.278 48.7778 145.222 48.3333 145.667M178 145L179 146L178 145z"/>
<path style="fill:#c8aa9d; stroke:none;" d="M186 145L187 146L186 145M24 146L25 147L24 146z"/>
<path style="fill:#5e5e5e; stroke:none;" d="M67 146L67 150C67.7102 148.241 67.7102 147.759 67 146M177 146L178 147L177 146M185 146L186 147L185 146M17 147L18 148L17 147M74.3333 147.667C74.2778 147.722 74.2222 148.778 74.6667 148.333C74.7222 148.278 74.7778 147.222 74.3333 147.667z"/>
<path style="fill:#c8aa9d; stroke:none;" d="M164.333 147.667C164.278 147.722 164.222 148.778 164.667 148.333C164.722 148.278 164.778 147.222 164.333 147.667M176 147L177 148L176 147z"/>
<path style="fill:#5e5e5e; stroke:none;" d="M18 148L19 149L18 148M25 148L26 149L25 148M41.3333 148.667C41.2778 148.722 41.2222 149.778 41.6667 149.333C41.7222 149.278 41.7778 148.222 41.3333 148.667M157 148L158 149L157 148z"/>
<path style="fill:#c8aa9d; stroke:none;" d="M184 148L185 149L184 148M18 149L19 150L18 149M26 149L27 150L26 149M49 149L50 150L49 149M74 149L75 150L74 149z"/>
<path style="fill:#5e5e5e; stroke:none;" d="M163.333 149.667C163.278 149.722 163.222 150.778 163.667 150.333C163.722 150.278 163.778 149.222 163.333 149.667M175 149L176 150L175 149M183 149L184 150L183 149M19 150L20 151L19 150M26 150L27 151L26 150z"/>
<path style="fill:#c8aa9d; stroke:none;" d="M41 150L42 151L41 150z"/>
<path style="fill:#5e5e5e; stroke:none;" d="M49.3333 150.667C49.2778 150.722 49.2222 151.778 49.6667 151.333C49.7222 151.278 49.7778 150.222 49.3333 150.667z"/>
<path style="fill:#c8aa9d; stroke:none;" d="M156 150L157 151L156 150M174 150L175 151L174 150M197 150L198 151L197 150M66 151L67 152L66 151z"/>
<path style="fill:#5e5e5e; stroke:none;" d="M73 151L74 152L73 151z"/>
<path style="fill:#c8aa9d; stroke:none;" d="M105 151L106 152L105 151z"/>
<path style="fill:#5e5e5e; stroke:none;" d="M156 151L157 152L156 151z"/>
<path style="fill:#c8aa9d; stroke:none;" d="M182 151L183 152L182 151z"/>
<path style="fill:#5e5e5e; stroke:none;" d="M196 151L197 152L196 151M199 151L199 154C199.696 152.446 199.696 152.554 199 151z"/>
<path style="fill:#c8aa9d; stroke:none;" d="M20 152L21 153L20 152z"/>
<path style="fill:#5e5e5e; stroke:none;" d="M27 152L28 153L27 152M42 152L43 153L42 152z"/>
<path style="fill:#c8aa9d; stroke:none;" d="M50 152L51 153L50 152z"/>
<path style="fill:#5e5e5e; stroke:none;" d="M66 152L67 153L66 152M104 152L105 153L104 152z"/>
<path style="fill:#c8aa9d; stroke:none;" d="M107 152L108 153L107 152M155 152L156 153L155 152z"/>
<path style="fill:#5e5e5e; stroke:none;" d="M162 152L163 153L162 152M173 152L174 153L173 152M181 152L182 153L181 152z"/>
<path style="fill:#c8aa9d; stroke:none;" d="M195 152L196 153L195 152z"/>
<path style="fill:#5e5e5e; stroke:none;" d="M21 153L22 154L21 153M50 153L51 154L50 153M72 153L73 154L72 153z"/>
<path style="fill:#c8aa9d; stroke:none;" d="M103 153L104 154L103 153z"/>
<path style="fill:#5e5e5e; stroke:none;" d="M155 153L156 154L155 153z"/>
<path style="fill:#c8aa9d; stroke:none;" d="M172 153L173 154L172 153z"/>
<path style="fill:#5e5e5e; stroke:none;" d="M180 153L181 154L180 153z"/>
<path style="fill:#c8aa9d; stroke:none;" d="M21 154L22 155L21 154M28 154L29 155L28 154z"/>
<path style="fill:#5e5e5e; stroke:none;" d="M43 154L44 155L43 154z"/>
<path style="fill:#c8aa9d; stroke:none;" d="M51 154L52 155L51 154M65 154L66 155L65 154z"/>
<path style="fill:#5e5e5e; stroke:none;" d="M103 154L104 155L103 154M107.333 154.667C107.278 154.722 107.222 155.778 107.667 155.333C107.722 155.278 107.778 154.222 107.333 154.667M154 154L155 155L154 154z"/>
<path style="fill:#c8aa9d; stroke:none;" d="M161 154L162 155L161 154M171 154L172 155L171 154M180 154L181 155L180 154z"/>
<path style="fill:#5e5e5e; stroke:none;" d="M194 154L195 155L194 154z"/>
<path style="fill:#c8aa9d; stroke:none;" d="M199 154L200 155L199 154z"/>
<path style="fill:#5e5e5e; stroke:none;" d="M22 155L23 156L22 155M44 155L45 156L44 155z"/>
<path style="fill:#c8aa9d; stroke:none;" d="M71 155L72 156L71 155z"/>
<path style="fill:#5e5e5e; stroke:none;" d="M102 155L103 156L102 155M153 155L154 156L153 155M160 155L161 156L160 155M171 155L172 156L171 155z"/>
<path style="fill:#c8aa9d; stroke:none;" d="M179 155L180 156L179 155M193 155L194 156L193 155z"/>
<path style="fill:#fefefe; stroke:none;" d="M199 155L198 162C200.293 159.997 200.14 157.734 199 155z"/>
<path style="fill:#5e5e5e; stroke:none;" d="M52 156L53 157L52 156M64 156L65 157L64 156z"/>
<path style="fill:#c8aa9d; stroke:none;" d="M70 156L71 157L70 156M101 156L102 157L101 156z"/>
<path style="fill:#5e5e5e; stroke:none;" d="M152 156L153 157L152 156M159 156L160 157L159 156M170 156L171 157L170 156z"/>
<path style="fill:#c8aa9d; stroke:none;" d="M178 156L179 157L178 156z"/>
<path style="fill:#5e5e5e; stroke:none;" d="M198.333 156.667C198.278 156.722 198.222 157.778 198.667 157.333C198.722 157.278 198.778 156.222 198.333 156.667z"/>
<path style="fill:#c8aa9d; stroke:none;" d="M3 157L4 158L3 157M23 157L24 158L23 157M45 157L46 158L45 157M54 157L55 158L54 157M62 157L63 158L62 157z"/>
<path style="fill:#5e5e5e; stroke:none;" d="M63 157L64 158L63 157M69 157L70 158L69 157z"/>
<path style="fill:#c8aa9d; stroke:none;" d="M91 157C93.0521 157.874 94.7472 157.953 97 158C94.9479 157.126 93.2528 157.047 91 157z"/>
<path style="fill:#5e5e5e; stroke:none;" d="M97 157C98.5061 157.683 99.3148 157.826 101 158C99.494 157.317 98.6852 157.174 97 157z"/>
<path style="fill:#c8aa9d; stroke:none;" d="M141 157L142 158L141 157M150 157L151 158L150 157z"/>
<path style="fill:#5e5e5e; stroke:none;" d="M158 157L159 158L158 157z"/>
<path style="fill:#c8aa9d; stroke:none;" d="M169 157L170 158L169 157z"/>
<path style="fill:#5e5e5e; stroke:none;" d="M177 157L178 158L177 157z"/>
<path style="fill:#c8aa9d; stroke:none;" d="M181 157C182.248 157.685 182.548 157.749 184 158C182.752 157.315 182.452 157.251 181 157z"/>
<path style="fill:#5e5e5e; stroke:none;" d="M184 157C186.613 158.098 189.164 157.993 192 158C189.387 156.902 186.835 157.007 184 157z"/>
<path style="fill:#c8aa9d; stroke:none;" d="M0 158L1 159L0 158z"/>
<path style="fill:#5e5e5e; stroke:none;" d="M11 158L13 161C13.699 159.007 12.9943 158.847 11 158z"/>
<path style="fill:#c8aa9d; stroke:none;" d="M13 158L14 159L13 158M44 158L45 159L44 158z"/>
<path style="fill:#5e5e5e; stroke:none;" d="M47 158L48 159L47 158M55 158L56 159L55 158z"/>
<path style="fill:#c8aa9d; stroke:none;" d="M56 158L57 159L56 158M60 158L61 159L60 158z"/>
<path style="fill:#5e5e5e; stroke:none;" d="M61 158L62 159L61 158z"/>
<path style="fill:#c8aa9d; stroke:none;" d="M68 158L69 159L68 158M80 158L81 159L80 158z"/>
<path style="fill:#5e5e5e; stroke:none;" d="M106 158L106 161C106.696 159.446 106.696 159.554 106 158z"/>
<path style="fill:#c8aa9d; stroke:none;" d="M110 158L111 159L110 158z"/>
<path style="fill:#5e5e5e; stroke:none;" d="M111.667 158.333C111.222 158.778 112.278 158.722 112.333 158.667C112.778 158.222 111.722 158.278 111.667 158.333M125 158L126 159L125 158z"/>
<path style="fill:#c8aa9d; stroke:none;" d="M130 158L131 159L130 158z"/>
<path style="fill:#5e5e5e; stroke:none;" d="M131.667 158.333C131.222 158.778 132.278 158.722 132.333 158.667C132.778 158.222 131.722 158.278 131.667 158.333M142 158C144.332 158.985 146.457 158.981 149 159C146.668 158.015 144.543 158.019 142 158z"/>
<path style="fill:#c8aa9d; stroke:none;" d="M157 158L158 159L157 158M164 158L165 159L164 158z"/>
<path style="fill:#5e5e5e; stroke:none;" d="M169.333 158.667C169.278 158.722 169.222 159.778 169.667 159.333C169.722 159.278 169.778 158.222 169.333 158.667z"/>
<path style="fill:#c8aa9d; stroke:none;" d="M198 158L199 159L198 158M24 159L25 160L24 159z"/>
<path style="fill:#5e5e5e; stroke:none;" d="M48 159L49 160L48 159M66 159L67 160L66 159z"/>
<path style="fill:#c8aa9d; stroke:none;" d="M67 159L68 160L67 159M126.333 159.667C126.278 159.722 126.222 160.778 126.667 160.333C126.722 160.278 126.778 159.222 126.333 159.667z"/>
<path style="fill:#5e5e5e; stroke:none;" d="M130.333 159.667C130.278 159.722 130.222 160.778 130.667 160.333C130.722 160.278 130.778 159.222 130.333 159.667z"/>
<path style="fill:#c8aa9d; stroke:none;" d="M155 159L156 160L155 159z"/>
<path style="fill:#5e5e5e; stroke:none;" d="M25 160L26 161L25 160z"/>
<path style="fill:#c8aa9d; stroke:none;" d="M49 160L50 161L49 160z"/>
<path style="fill:#5e5e5e; stroke:none;" d="M50 160L51 161L50 160M64 160L65 161L64 160z"/>
<path style="fill:#c8aa9d; stroke:none;" d="M65 160L66 161L65 160z"/>
<path style="fill:#5e5e5e; stroke:none;" d="M152 160L153 161L152 160z"/>
<path style="fill:#c8aa9d; stroke:none;" d="M153 160L154 161L153 160M169 160L170 161L169 160M0 161C4.21653 162.769 9.45886 162 14 162C9.78347 160.231 4.54114 161 0 161M26 161C28.6127 162.098 31.1645 161.993 34 162C31.3873 160.902 28.8355 161.007 26 161M52 161L53 162L52 161z"/>
<path style="fill:#5e5e5e; stroke:none;" d="M53 161L54 162L53 161M61.6667 161.333C61.2222 161.778 62.2778 161.722 62.3333 161.667C62.7778 161.222 61.7222 161.278 61.6667 161.333z"/>
<path style="fill:#c8aa9d; stroke:none;" d="M63 161L64 162L63 161M80 161C87.4089 164.109 98.9755 162 107 162C99.5911 158.891 88.0245 161 80 161M110 161C114.724 162.982 120.91 162 126 162C121.276 160.018 115.09 161 110 161M130 161C133.432 162.44 137.3 162 141 162C137.568 160.56 133.7 161 130 161z"/>
<path style="fill:#5e5e5e; stroke:none;" d="M141 161C143.613 162.098 146.165 161.993 149 162C146.387 160.902 143.835 161.007 141 161z"/>
<path style="fill:#c8aa9d; stroke:none;" d="M149.667 161.333C149.222 161.778 150.278 161.722 150.333 161.667C150.778 161.222 149.722 161.278 149.667 161.333M170 161C177.649 164.21 189.712 162 198 162C190.351 158.79 178.288 161 170 161z"/>
</svg>
